<svg width="104" height="32" viewBox="0 0 104 32" fill="none" xmlns="http://www.w3.org/2000/svg">
<path d="M16 0L19.5922 11.0557H31.2169L21.8123 17.8885L25.4046 28.9443L16 22.1115L6.59544 28.9443L10.1877 17.8885L0.783095 11.0557H12.4078L16 0Z" fill="#5CD3E7"/>
<path d="M52 0L55.5922 11.0557H67.2169L57.8123 17.8885L61.4046 28.9443L52 22.1115L42.5954 28.9443L46.1877 17.8885L36.7831 11.0557H48.4078L52 0Z" fill="#F3D72B"/>
<path d="M88 0L91.5922 11.0557H103.217L93.8123 17.8885L97.4046 28.9443L88 22.1115L78.5954 28.9443L82.1877 17.8885L72.7831 11.0557H84.4078L88 0Z" fill="#E35200"/>
</svg>
